<svg width="51" height="50" viewBox="0 0 51 50" fill="none" xmlns="http://www.w3.org/2000/svg">
<g filter="url(#filter0_di_623_7993)">
<circle cx="23.5" cy="23" r="17" fill="url(#paint0_linear_623_7993)"/>
</g>
<g filter="url(#filter1_d_623_7993)">
<path d="M29.0735 22.0054C29.4369 22.0054 29.7277 22.1235 29.9457 22.3597C30.1819 22.5778 30.3 22.8685 30.3 23.2319C30.3 23.5771 30.1819 23.8587 29.9457 24.0767C29.7277 24.2948 29.4369 24.4038 29.0735 24.4038H24.8763V28.5737C24.8763 28.9735 24.7492 29.3096 24.4948 29.5822C24.2404 29.8365 23.9043 29.9637 23.4864 29.9637C23.0866 29.9637 22.7505 29.8365 22.478 29.5822C22.2236 29.3096 22.0964 28.9735 22.0964 28.5737V24.4038H17.9264C17.5812 24.4038 17.2905 24.2857 17.0543 24.0495C16.8181 23.8133 16.7 23.5226 16.7 23.1773C16.7 22.8321 16.809 22.5505 17.0271 22.3325C17.2633 22.1144 17.5631 22.0054 17.9264 22.0054H22.0964V17.5629C22.0964 17.1632 22.2236 16.8361 22.478 16.5818C22.7505 16.3274 23.0866 16.2002 23.4864 16.2002C23.9043 16.2002 24.2404 16.3274 24.4948 16.5818C24.7492 16.8361 24.8763 17.1632 24.8763 17.5629V22.0054H29.0735Z" fill="url(#paint1_linear_623_7993)"/>
</g>
<defs>
<filter id="filter0_di_623_7993" x="0.5" y="0" width="50" height="50" filterUnits="userSpaceOnUse" color-interpolation-filters="sRGB">
<feFlood flood-opacity="0" result="BackgroundImageFix"/>
<feColorMatrix in="SourceAlpha" type="matrix" values="0 0 0 0 0 0 0 0 0 0 0 0 0 0 0 0 0 0 127 0" result="hardAlpha"/>
<feOffset dx="2" dy="2"/>
<feGaussianBlur stdDeviation="4"/>
<feColorMatrix type="matrix" values="0 0 0 0 0.204022 0 0 0 0 0.19656 0 0 0 0 0.197811 0 0 0 0.3 0"/>
<feBlend mode="normal" in2="BackgroundImageFix" result="effect1_dropShadow_623_7993"/>
<feBlend mode="normal" in="SourceGraphic" in2="effect1_dropShadow_623_7993" result="shape"/>
<feColorMatrix in="SourceAlpha" type="matrix" values="0 0 0 0 0 0 0 0 0 0 0 0 0 0 0 0 0 0 127 0" result="hardAlpha"/>
<feOffset dx="-3" dy="-4"/>
<feGaussianBlur stdDeviation="4.5"/>
<feComposite in2="hardAlpha" operator="arithmetic" k2="-1" k3="1"/>
<feColorMatrix type="matrix" values="0 0 0 0 0.120689 0 0 0 0 0.118286 0 0 0 0 0.119007 0 0 0 1 0"/>
<feBlend mode="normal" in2="shape" result="effect2_innerShadow_623_7993"/>
</filter>
<filter id="filter1_d_623_7993" x="8.83512" y="9.31843" width="37.1946" height="37.3583" filterUnits="userSpaceOnUse" color-interpolation-filters="sRGB">
<feFlood flood-opacity="0" result="BackgroundImageFix"/>
<feColorMatrix in="SourceAlpha" type="matrix" values="0 0 0 0 0 0 0 0 0 0 0 0 0 0 0 0 0 0 127 0" result="hardAlpha"/>
<feOffset dx="3.93244" dy="4.91555"/>
<feGaussianBlur stdDeviation="5.89865"/>
<feColorMatrix type="matrix" values="0 0 0 0 0.00416667 0 0 0 0 0.00416667 0 0 0 0 0.00416667 0 0 0 0.28 0"/>
<feBlend mode="normal" in2="BackgroundImageFix" result="effect1_dropShadow_623_7993"/>
<feBlend mode="normal" in="SourceGraphic" in2="effect1_dropShadow_623_7993" result="shape"/>
</filter>
<linearGradient id="paint0_linear_623_7993" x1="20.1411" y1="12.2481" x2="30.7291" y2="31.1257" gradientUnits="userSpaceOnUse">
<stop stop-color="#535152"/>
<stop offset="1" stop-color="#1F1C1C"/>
</linearGradient>
<linearGradient id="paint1_linear_623_7993" x1="22.1564" y1="18.7295" x2="26.4419" y2="26.78" gradientUnits="userSpaceOnUse">
<stop stop-color="white"/>
<stop offset="1" stop-color="#FFEBED"/>
</linearGradient>
</defs>
</svg>
