<svg width="12" height="13" viewBox="0 0 12 13" fill="none" xmlns="http://www.w3.org/2000/svg">
<path fill-rule="evenodd" clip-rule="evenodd" d="M1.24408 1.94232C1.56951 1.61688 2.09715 1.61688 2.42259 1.94232L6 5.51973L9.57741 1.94232C9.90285 1.61688 10.4305 1.61688 10.7559 1.94232C11.0814 2.26776 11.0814 2.79539 10.7559 3.12083L7.17851 6.69824L10.7559 10.2757C11.0814 10.6011 11.0814 11.1287 10.7559 11.4542C10.4305 11.7796 9.90285 11.7796 9.57741 11.4542L6 7.87675L2.42259 11.4542C2.09715 11.7796 1.56951 11.7796 1.24408 11.4542C0.918641 11.1287 0.918641 10.6011 1.24408 10.2757L4.82149 6.69824L1.24408 3.12083C0.918641 2.79539 0.918641 2.26776 1.24408 1.94232Z" fill="white" stroke="white" stroke-width="2" stroke-linecap="round" stroke-linejoin="round"/>
</svg>
