<svg width="52" height="44" viewBox="0 0 52 44" fill="none" xmlns="http://www.w3.org/2000/svg">
<g filter="url(#filter0_di_623_7973)">
<path d="M13.0092 6.56494H34.141C34.375 6.56491 34.6056 6.61835 34.814 6.7209C35.0225 6.82346 35.2029 6.9722 35.3404 7.15499L41.0081 14.6823C41.1088 14.8163 41.1584 14.9798 41.1484 15.1451C41.1384 15.3104 41.0695 15.4672 40.9532 15.5889L24.1192 33.2057C24.0498 33.2782 23.9656 33.336 23.872 33.3755C23.7784 33.4151 23.6773 33.4355 23.5751 33.4355C23.4729 33.4355 23.3719 33.4151 23.2782 33.3755C23.1846 33.336 23.1004 33.2782 23.031 33.2057L6.19701 15.5903C6.08042 15.4685 6.0112 15.3114 6.0012 15.1458C5.99119 14.9802 6.04102 14.8164 6.14216 14.6823L11.8098 7.15499C11.9474 6.9722 12.1278 6.82346 12.3362 6.7209C12.5447 6.61835 12.7753 6.56491 13.0092 6.56494Z" fill="url(#paint0_linear_623_7973)"/>
</g>
<defs>
<filter id="filter0_di_623_7973" x="-6.10352e-05" y="0.564941" width="51.1497" height="42.8706" filterUnits="userSpaceOnUse" color-interpolation-filters="sRGB">
<feFlood flood-opacity="0" result="BackgroundImageFix"/>
<feColorMatrix in="SourceAlpha" type="matrix" values="0 0 0 0 0 0 0 0 0 0 0 0 0 0 0 0 0 0 127 0" result="hardAlpha"/>
<feOffset dx="2" dy="2"/>
<feGaussianBlur stdDeviation="4"/>
<feColorMatrix type="matrix" values="0 0 0 0 0.108189 0 0 0 0 0.106937 0 0 0 0 0.107146 0 0 0 0.3 0"/>
<feBlend mode="normal" in2="BackgroundImageFix" result="effect1_dropShadow_623_7973"/>
<feBlend mode="normal" in="SourceGraphic" in2="effect1_dropShadow_623_7973" result="shape"/>
<feColorMatrix in="SourceAlpha" type="matrix" values="0 0 0 0 0 0 0 0 0 0 0 0 0 0 0 0 0 0 127 0" result="hardAlpha"/>
<feOffset dx="-3" dy="-4"/>
<feGaussianBlur stdDeviation="4.5"/>
<feComposite in2="hardAlpha" operator="arithmetic" k2="-1" k3="1"/>
<feColorMatrix type="matrix" values="0 0 0 0 0.154022 0 0 0 0 0.153523 0 0 0 0 0.153673 0 0 0 1 0"/>
<feBlend mode="normal" in2="shape" result="effect2_innerShadow_623_7973"/>
</filter>
<linearGradient id="paint0_linear_623_7973" x1="20.1023" y1="11.5029" x2="27.2057" y2="28.0697" gradientUnits="userSpaceOnUse">
<stop stop-color="#232222" stop-opacity="0.89"/>
<stop offset="1" stop-color="#232021" stop-opacity="0.84"/>
</linearGradient>
</defs>
</svg>
