<svg width="28" height="30" viewBox="0 0 28 30" fill="none" xmlns="http://www.w3.org/2000/svg">
<ellipse cx="14.2383" cy="14.1637" rx="13.7627" ry="13.7875" fill="#36D877"/>
<path d="M12.6608 18.0002C12.4528 18.0002 12.2888 17.9442 12.1688 17.8322C12.0568 17.7122 12.0008 17.5522 12.0008 17.3522C12.0008 17.1442 12.0568 16.9882 12.1688 16.8842C12.2888 16.7802 12.4528 16.7282 12.6608 16.7282H14.0048V10.8362H14.7488L12.9848 11.9042C12.8328 11.9922 12.6888 12.0282 12.5528 12.0122C12.4248 11.9882 12.3128 11.9322 12.2168 11.8442C12.1288 11.7482 12.0688 11.6362 12.0368 11.5082C12.0048 11.3802 12.0128 11.2522 12.0608 11.1242C12.1168 10.9882 12.2208 10.8762 12.3728 10.7882L14.0288 9.79224C14.1888 9.69624 14.3488 9.61624 14.5088 9.55224C14.6688 9.48024 14.8168 9.44424 14.9528 9.44424C15.1208 9.44424 15.2608 9.49224 15.3728 9.58824C15.4848 9.67624 15.5408 9.82424 15.5408 10.0322V16.7282H16.7648C16.9728 16.7282 17.1328 16.7802 17.2448 16.8842C17.3648 16.9882 17.4248 17.1442 17.4248 17.3522C17.4248 17.5602 17.3648 17.7202 17.2448 17.8322C17.1328 17.9442 16.9728 18.0002 16.7648 18.0002H12.6608Z" fill="white"/>
</svg>
