<svg width="46" height="45" viewBox="0 0 46 45" fill="none" xmlns="http://www.w3.org/2000/svg">
<g filter="url(#filter0_di_623_7962)">
<path d="M22.0491 31.0867C21.4348 30.7362 20.6811 30.7362 20.0668 31.0867L14.3052 34.3741C12.8191 35.222 11.0236 33.9337 11.3509 32.2544L12.6596 25.5397C12.7909 24.8661 12.5677 24.1723 12.0683 23.7017L7.10706 19.0255C5.87316 17.8625 6.55546 15.788 8.23881 15.5845L14.8794 14.7817C15.5734 14.6978 16.1732 14.2577 16.4615 13.6208L19.2359 7.49045C19.9451 5.92328 22.1708 5.92328 22.8801 7.49045L25.6545 13.6208C25.9427 14.2577 26.5425 14.6978 27.2365 14.7817L33.8771 15.5845C35.5605 15.788 36.2428 17.8625 35.0089 19.0255L30.0476 23.7017C29.5482 24.1723 29.325 24.8661 29.4563 25.5397L30.765 32.2544C31.0923 33.9337 29.2968 35.222 27.8108 34.3741L22.0491 31.0867Z" fill="url(#paint0_linear_623_7962)"/>
</g>
<defs>
<filter id="filter0_di_623_7962" x="0.47644" y="0.314941" width="45.1631" height="44.3271" filterUnits="userSpaceOnUse" color-interpolation-filters="sRGB">
<feFlood flood-opacity="0" result="BackgroundImageFix"/>
<feColorMatrix in="SourceAlpha" type="matrix" values="0 0 0 0 0 0 0 0 0 0 0 0 0 0 0 0 0 0 127 0" result="hardAlpha"/>
<feOffset dx="2" dy="2"/>
<feGaussianBlur stdDeviation="4"/>
<feColorMatrix type="matrix" values="0 0 0 0 0.141522 0 0 0 0 0.136346 0 0 0 0 0.137214 0 0 0 0.3 0"/>
<feBlend mode="normal" in2="BackgroundImageFix" result="effect1_dropShadow_623_7962"/>
<feBlend mode="normal" in="SourceGraphic" in2="effect1_dropShadow_623_7962" result="shape"/>
<feColorMatrix in="SourceAlpha" type="matrix" values="0 0 0 0 0 0 0 0 0 0 0 0 0 0 0 0 0 0 127 0" result="hardAlpha"/>
<feOffset dx="-3" dy="-4"/>
<feGaussianBlur stdDeviation="4.5"/>
<feComposite in2="hardAlpha" operator="arithmetic" k2="-1" k3="1"/>
<feColorMatrix type="matrix" values="0 0 0 0 0.137355 0 0 0 0 0.135766 0 0 0 0 0.136243 0 0 0 1 0"/>
<feBlend mode="normal" in2="shape" result="effect2_innerShadow_623_7962"/>
</filter>
<linearGradient id="paint0_linear_623_7962" x1="17.6876" y1="9.54183" x2="27.8173" y2="28.1726" gradientUnits="userSpaceOnUse">
<stop stop-color="#141313" stop-opacity="0.89"/>
<stop offset="1" stop-color="#141314"/>
</linearGradient>
</defs>
</svg>
