<svg width="53" height="18" viewBox="0 0 53 18" fill="none" xmlns="http://www.w3.org/2000/svg">
<path d="M27.3259 5.83308C27.2958 8.13658 29.4396 9.42194 31.0545 10.1862C32.7137 10.9703 33.271 11.4732 33.2644 12.1745C33.2521 13.2476 31.9409 13.7213 30.7141 13.7397C28.5736 13.7719 27.329 13.1784 26.3396 12.7296L25.5685 16.2338C26.5612 16.6781 28.3993 17.0655 30.3055 17.0825C34.7798 17.0825 37.7071 14.9374 37.7229 11.6116C37.7404 7.39068 31.7115 7.15705 31.7527 5.27041C31.7669 4.69834 32.329 4.08786 33.5606 3.93264C34.1702 3.85423 35.8531 3.79422 37.761 4.64753L38.5099 1.2571C37.4838 0.894251 36.1651 0.546806 34.5232 0.546806C30.3118 0.546806 27.3498 2.72108 27.3259 5.83308ZM45.7056 0.838844C44.8885 0.838844 44.2 1.3017 43.8928 2.01199L37.5013 16.8335H41.9724L42.8622 14.4454H48.3257L48.8419 16.8335H52.7826L49.3438 0.838844H45.7056ZM46.3311 5.1596L47.6214 11.1658H44.0876L46.3311 5.1596ZM21.9049 0.839045L18.3806 16.8333H22.6412L26.1639 0.838644H21.9049V0.839045ZM15.6021 0.838644L11.1674 11.7254L9.37356 2.46885C9.16308 1.43552 8.33184 0.838844 7.40875 0.838844H0.15952L0.0579834 1.3033C1.54622 1.61694 3.23711 2.12281 4.26154 2.66408C4.88847 2.99472 5.06724 3.28376 5.27319 4.06946L8.67084 16.8335H13.1732L20.076 0.838844H15.6021" fill="#578DF5"/>
</svg>
